<svg width="0" height="0" class="hidden" xmlns="http://www.w3.org/2000/svg">
  <symbol id="close-icon" viewBox="0 0 16 17">
    <path d="M14.414.248l1.414 1.414L1.435 16.056.02 14.64 14.414.248z" ></path>
    <path d="M1.414.248L0 1.662l14.393 14.394 1.415-1.415L1.414.248z" ></path>
  </symbol>
  <symbol id="hamburger" viewBox="0 0 18 12">
    <path d="M0 0h18v2H0zm0 5h18v2H0zm0 5h18v2H0z"></path>
  </symbol>
  <symbol id="camera" viewBox="0 0 23 20">
    <path d="M14.959 11.577a3.464 3.464 0 01-3.459 3.468 3.464 3.464 0 01-3.459-3.468A3.464 3.464 0 0111.5 8.108a3.464 3.464 0 013.459 3.469z"></path>
    <path fill-rule="evenodd" clip-rule="evenodd" d="M17.249 3.063h2.741A3.014 3.014 0 0123 6.081v10.901A3.014 3.014 0 0119.99 20H3.01A3.014 3.014 0 010 16.982v-10.9a3.014 3.014 0 013.01-3.019h2.74A3.149 3.149 0 018.895 0h5.21a3.149 3.149 0 013.144 3.063zM11.5 17.027c3.002 0 5.436-2.44 5.436-5.45 0-3.01-2.434-5.45-5.436-5.45s-5.436 2.44-5.436 5.45c0 3.01 2.434 5.45 5.436 5.45z"></path>
  </symbol>
  <symbol id="logo" viewBox="0 0 85 65">
    <path fill-rule="evenodd" clip-rule="evenodd" d="M40 0C34.4772 0 30 4.47715 30 10V33C30 38.5228 34.4772 43 40 43H41V51L48.1111 43H75C80.5228 43 85 38.5228 85 33V10C85 4.47715 80.5228 0 75 0H40ZM78 7H37V36H78V7Z"/>
    <path d="M32.2909 45.1119V53.8236H4.70908V32.2157H27V27H6.72727C3.0119 27 0 30.3359 0 34.451V51.5882C0 55.7033 3.0119 59.0392 6.72727 59.0392H24.8162L29.6 65V59.0392H30.2727C33.9881 59.0392 37 55.7033 37 51.5882V46.9231L32.2909 45.1119Z"/>
    <path d="M68.6909 45V55.2242H49.3091V50.2797L46 51.3077V53.9555C46 56.2911 48.1165 58.1844 50.7273 58.1844H51.2V61.5676L54.5616 58.1844H67.2727C69.8835 58.1844 72 56.2911 72 53.9555V45H68.6909Z"/>
  </symbol>
</svg>