<svg width="0" height="0" class="hidden" xmlns="http://www.w3.org/2000/svg">
  <symbol id="close-icon" viewBox="0 0 16 17">
    <path d="M14.414.248l1.414 1.414L1.435 16.056.02 14.64 14.414.248z" ></path>
    <path d="M1.414.248L0 1.662l14.393 14.394 1.415-1.415L1.414.248z" ></path>
  </symbol>
  <symbol id="hamburger" viewBox="0 0 18 12">
    <path d="M0 0h18v2H0zm0 5h18v2H0zm0 5h18v2H0z"></path>
  </symbol>
  <symbol id="camera" viewBox="0 0 23 20">
    <path d="M14.959 11.577a3.464 3.464 0 01-3.459 3.468 3.464 3.464 0 01-3.459-3.468A3.464 3.464 0 0111.5 8.108a3.464 3.464 0 013.459 3.469z"></path>
    <path fill-rule="evenodd" clip-rule="evenodd" d="M17.249 3.063h2.741A3.014 3.014 0 0123 6.081v10.901A3.014 3.014 0 0119.99 20H3.01A3.014 3.014 0 010 16.982v-10.9a3.014 3.014 0 013.01-3.019h2.74A3.149 3.149 0 018.895 0h5.21a3.149 3.149 0 013.144 3.063zM11.5 17.027c3.002 0 5.436-2.44 5.436-5.45 0-3.01-2.434-5.45-5.436-5.45s-5.436 2.44-5.436 5.45c0 3.01 2.434 5.45 5.436 5.45z"></path>
  </symbol>
  <symbol id="logo" viewBox="0 0 85 65">
    <path fill-rule="evenodd" clip-rule="evenodd" d="M40 0C34.4772 0 30 4.47715 30 10V33C30 38.5228 34.4772 43 40 43H41V51L48.1111 43H75C80.5228 43 85 38.5228 85 33V10C85 4.47715 80.5228 0 75 0H40ZM78 7H37V36H78V7Z"/>
    <path d="M32.2909 45.1119V53.8236H4.70908V32.2157H27V27H6.72727C3.0119 27 0 30.3359 0 34.451V51.5882C0 55.7033 3.0119 59.0392 6.72727 59.0392H24.8162L29.6 65V59.0392H30.2727C33.9881 59.0392 37 55.7033 37 51.5882V46.9231L32.2909 45.1119Z"/>
    <path d="M68.6909 45V55.2242H49.3091V50.2797L46 51.3077V53.9555C46 56.2911 48.1165 58.1844 50.7273 58.1844H51.2V61.5676L54.5616 58.1844H67.2727C69.8835 58.1844 72 56.2911 72 53.9555V45H68.6909Z"/>
  </symbol>
  <symbol id="avatar-default" x="0px" y="0px" viewBox="0 0 512 512" style="enable-background:new 0 0 512 512;" xml:space="preserve">
    <g>
      <g>
        <path d="M418.88,344.043l-54.869-19.093c-3.989-1.408-8.491-0.277-11.371,2.859c-26.901,29.355-61.227,45.525-96.64,45.525
          s-69.739-16.171-96.64-45.525c-2.901-3.136-7.36-4.245-11.371-2.859L93.12,344.043C37.419,363.413,0,416.043,0,475.008v15.659
          c0,5.888,4.779,10.667,10.667,10.667h490.667c5.888,0,10.667-4.779,10.667-10.667v-15.659
          C512,416.021,474.581,363.392,418.88,344.043z M490.667,480H21.333v-4.992c0-49.899,31.659-94.443,78.784-110.827l48.384-16.832
          c30.251,30.571,68.181,47.317,107.499,47.317s77.248-16.747,107.499-47.317l48.384,16.832
          c47.125,16.384,78.784,60.928,78.784,110.827V480z"/>
      </g>
    </g>
    <g>
      <g>
        <path d="M383.936,141.44c0.043-0.917,0.064-1.856,0.064-2.773c0-70.592-57.408-128-128-128s-128,57.408-128,128
          c0,0.917,0.021,1.856,0.064,2.773c-12.715,6.955-21.397,26.389-21.397,50.56c0,29.675,13.099,52.224,30.677,53.291
          C156.736,309.547,203.435,352,256,352s99.264-42.453,118.656-106.709c17.579-1.067,30.677-23.616,30.677-53.291
          C405.333,167.829,396.651,148.395,383.936,141.44z M372.672,223.531c-2.901-1.792-6.464-2.091-9.643-0.811
          c-3.136,1.28-5.483,3.989-6.315,7.296C341.781,290.219,301.312,330.667,256,330.667s-85.781-40.448-100.715-100.651
          c-0.832-3.307-3.499-5.76-6.656-7.061c-1.173-0.491-2.453-0.704-3.755-0.704c-2.176,0-4.395,0.619-6.208,1.749
          C136,224,128,212.651,128,192c0-19.563,7.189-30.763,10.197-31.915c0.107,0.021,0.235,0.043,0.32,0.043
          c3.136,0.235,6.357-0.811,8.619-3.072c2.261-2.283,3.392-5.461,3.051-8.64l-0.299-2.667c-0.256-2.347-0.555-4.672-0.555-7.083
          C149.333,79.851,197.184,32,256,32s106.667,47.851,106.667,106.667c0,2.411-0.299,4.736-0.555,7.061l-0.299,2.667
          c-0.32,3.2,0.789,6.379,3.051,8.64c2.283,2.283,5.461,3.349,8.619,3.093c0.085-0.021,0.213-0.021,0.32-0.043
          C376.811,161.237,384,172.437,384,192C384,212.651,376.171,224,372.672,223.531z"/>
      </g>
    </g>
    <g>
      <g>
        <path d="M256,96c-25.131,0-42.667,17.536-42.667,42.667c0,5.888,4.779,10.667,10.667,10.667s10.667-4.779,10.667-10.667
          c0-19.243,14.912-21.333,21.333-21.333s21.333,2.091,21.333,21.333c0,17.899-3.947,26.069-16.235,33.557
          c-23.723,14.507-27.691,33.685-26.304,42.731c0.811,5.248,5.291,8.853,10.453,8.853c0.427,0,0.875-0.043,1.323-0.085
          c5.696-0.661,9.813-5.931,9.344-11.669c-0.021-0.448-0.704-11.221,16.32-21.611c18.773-11.477,26.432-26.475,26.432-51.776
          C298.667,113.536,281.131,96,256,96z"/>
      </g>
    </g>
    <g>
      <g>
        <circle cx="245.333" cy="256" r="10.667"/>
      </g>
    </g>
    <g>
    </g>
    <g>
    </g>
    <g>
    </g>
    <g>
    </g>
    <g>
    </g>
    <g>
    </g>
    <g>
    </g>
    <g>
    </g>
    <g>
    </g>
    <g>
    </g>
    <g>
    </g>
    <g>
    </g>
    <g>
    </g>
    <g>
    </g>
    <g>
    </g>
</symbol>

</svg>